<svg version="1.1" width="460" height="460" xmlns="http://www.w3.org/2000/svg">
<rect x="0" y="0" width="460" height="460" fill="#c0c0c0" />
<g transform="scale(1, 1)">
<path d="M 143.554 37.9935 C 184.869 16.76, 251.886 16.698, 293.24 37.8551 C 334.594 59.0121, 334.626 93.3764, 293.311 114.61 C 251.996 135.843, 184.979 135.905, 143.625 114.748 C 102.271 93.5914, 102.239 59.2271, 143.554 37.9935" fill="#000000" fill-opacity="0.501961" />
<path d="M 302.296 316.704 C 340.568 354.975, 340.568 417.025, 302.296 455.296 C 264.025 493.568, 201.975 493.568, 163.704 455.296 C 125.432 417.025, 125.432 354.975, 163.704 316.704 C 201.975 278.432, 264.025 278.432, 302.296 316.704" fill="#1c1c1c" fill-opacity="0.501961" />
<path d="M 12 -16 L -16 427 L 165 333 Z" fill="#ffffff" fill-opacity="0.501961" />
<path d="M 90 123 L 219 4 L 350 113 Z" fill="#000000" fill-opacity="0.501961" />
<path d="M 290 -16 L 446 475 L 475 0 Z" fill="#ffffff" fill-opacity="0.501961" />
<path d="M 94.4462 174.689 L 160.686 12.4718 L 133.241 176.987 L 119.733 222.28 Z" fill="#000000" fill-opacity="0.501961" />
<path d="M 334 212 L 239 19 L 325 70 Z" fill="#000000" fill-opacity="0.501961" />
<path d="M -16 -2 L 3 475 L 142 -5 Z" fill="#ffffff" fill-opacity="0.501961" />
<path d="M 147 356 L 200 475 L 287 457 Z" fill="#ffffff" fill-opacity="0.501961" />
<path d="M 229.068 222.992 L 247.415 252.192 L 305.215 198.69 L 255.112 196.031 Z" fill="#000000" fill-opacity="0.501961" />
<path d="M 268 291 L 273 462 L 397 459 Z" fill="#3b3b3b" fill-opacity="0.501961" />
<path d="M 479.564 382.403 L 336.349 405.086 L 304.436 203.597 L 447.651 180.914 Z" fill="#ffffff" fill-opacity="0.501961" />
<path d="M 475 -9 L 475 166 L 228 0 Z" fill="#ffffff" fill-opacity="0.501961" />
<path d="M 144.672 219.88 L 181.293 197.041 L 198.105 213.314 L 201.118 238.323 Z" fill="#000000" fill-opacity="0.501961" />
<path d="M 158.053 132.064 C 189.025 113.206, 240.608 110.694, 273.266 126.453 C 305.924 142.212, 307.29 170.274, 276.318 189.131 C 245.346 207.989, 193.763 210.501, 161.105 194.742 C 128.447 178.983, 127.081 150.921, 158.053 132.064" fill="#ffffff" fill-opacity="0.501961" />
<path d="M 318.636 346.538 L 191.866 324.191 L 174.282 333.283 L 199.29 382.478 Z" fill="#e3e3e3" fill-opacity="0.501961" />
<path d="M 287.933 302.393 C 322.689 308.251, 322.689 317.749, 287.933 323.607 C 253.176 329.464, 196.824 329.464, 162.067 323.607 C 127.311 317.749, 127.311 308.251, 162.067 302.393 C 196.824 296.536, 253.176 296.536, 287.933 302.393" fill="#020202" fill-opacity="0.501961" />
<path d="M 241 418 L 183 381 L 284 375 Z" fill="#000000" fill-opacity="0.501961" />
<path d="M 173 29 L 105 94 L 119 210 Z" fill="#000000" fill-opacity="0.501961" />
<path d="M -16 1 L 33 129 L 203 -7 Z" fill="#ffffff" fill-opacity="0.501961" />
<path d="M 0 329 L 168 329 L 168 230 L 0 230 Z" fill="#ffffff" fill-opacity="0.501961" />
<path d="M 190.027 461.803 L 184.142 474.891 L 158.298 438.26 L 141.807 362.269 Z" fill="#000000" fill-opacity="0.501961" />
<path d="M 304.62 430.437 C 292.695 443.751, 284.656 440.146, 286.663 422.386 C 288.671 404.625, 299.966 379.435, 311.891 366.121 C 323.817 352.807, 331.856 356.412, 329.848 374.172 C 327.841 391.933, 316.546 417.124, 304.62 430.437" fill="#000000" fill-opacity="0.501961" />
<path d="M 343.355 219.363 L 347.285 210.286 L 282.525 28.7059 L 326.777 218.585 Z" fill="#000000" fill-opacity="0.501961" />
<path d="M 277.235 114.054 L 156.696 124.6 L 148.765 33.9461 L 269.304 23.4002 Z" fill="#000000" fill-opacity="0.501961" />
<path d="M 475 -9 L 308 -4 L 407 448 Z" fill="#ffffff" fill-opacity="0.501961" />
<path d="M 179.264 277.566 L 166.6 322.248 L 139.797 322.185 L 183.455 380.814 Z" fill="#000000" fill-opacity="0.501961" />
<path d="M 352 242 L 211 302 L 108 241 Z" fill="#f4f4f4" fill-opacity="0.501961" />
<path d="M 157 475 L -16 451 L 145 365 Z" fill="#919191" fill-opacity="0.501961" />
<path d="M -14 64 L -16 -16 L 277 0 Z" fill="#ffffff" fill-opacity="0.501961" />
<path d="M 445.033 261.967 C 474.322 291.256, 474.322 338.744, 445.033 368.033 C 415.744 397.322, 368.256 397.322, 338.967 368.033 C 309.678 338.744, 309.678 291.256, 338.967 261.967 C 368.256 232.678, 415.744 232.678, 445.033 261.967" fill="#ffffff" fill-opacity="0.501961" />
<path d="M 105.79 49.7444 L 97.1695 296.594 L 30.2103 294.256 L 38.8305 47.4061 Z" fill="#ffffff" fill-opacity="0.501961" />
<path d="M 325 379 L 392 379 L 392 450 L 325 450 Z" fill="#a2a2a2" fill-opacity="0.501961" />
<path d="M 254.831 113.219 L 125.705 212.114 L 315.199 138.488 L 276.944 112.391 Z" fill="#f1f1f1" fill-opacity="0.501961" />
<path d="M 185.87 383.861 L 222.644 435.623 L 157.624 393.646 L 150.116 338.465 Z" fill="#f7f7f7" fill-opacity="0.501961" />
<path d="M 262 193 L 309 222 L 242 215 Z" fill="#000000" fill-opacity="0.501961" />
<path d="M 273.135 390.009 C 270.769 366.634, 278.605 331.325, 290.637 311.145 C 302.668 290.964, 314.34 293.554, 316.705 316.93 C 319.071 340.305, 311.235 375.614, 299.203 395.794 C 287.172 415.975, 275.501 413.384, 273.135 390.009" fill="#707070" fill-opacity="0.501961" />
<path d="M 3 -16 L -12 405 L 147 364 Z" fill="#ffffff" fill-opacity="0.501961" />
<path d="M 265 190 L 134 153 L 141 116 Z" fill="#f9f9f9" fill-opacity="0.501961" />
<path d="M 312.243 345.565 C 314.586 352.985, 314.586 365.015, 312.243 372.435 C 309.899 379.855, 306.101 379.855, 303.757 372.435 C 301.414 365.015, 301.414 352.985, 303.757 345.565 C 306.101 338.145, 309.899 338.145, 312.243 345.565" fill="#ffffff" fill-opacity="0.501961" />
<path d="M 374.518 476.295 C 377.506 501.257, 373.572 502.129, 365.731 478.243 C 357.889 454.356, 349.11 414.757, 346.121 389.795 C 343.133 364.832, 347.067 363.96, 354.908 387.847 C 362.75 411.733, 371.529 451.332, 374.518 476.295" fill="#3a3a3a" fill-opacity="0.501961" />
<path d="M 167 16 L 99 162 L 114 68 Z" fill="#464646" fill-opacity="0.501961" />
<path d="M 475 440 L 313 310 L 449 -16 Z" fill="#ffffff" fill-opacity="0.501961" />
<path d="M 252.925 380.653 L 318.909 314.807 L 254.271 411.017 L 199.554 398.439 Z" fill="#000000" fill-opacity="0.501961" />
<path d="M 316.974 109.821 C 324.349 122.735, 329.391 145.224, 328.235 160.052 C 327.079 174.879, 320.162 176.429, 312.787 163.515 C 305.412 150.6, 300.37 128.111, 301.526 113.284 C 302.683 98.4568, 309.599 96.9063, 316.974 109.821" fill="#000000" fill-opacity="0.501961" />
<path d="M 321.556 459.269 C 317.597 454.392, 319.479 450.319, 325.758 450.17 C 332.037 450.021, 340.337 453.854, 344.296 458.731 C 348.254 463.608, 346.373 467.681, 340.093 467.83 C 333.814 467.979, 325.514 464.146, 321.556 459.269" fill="#000000" fill-opacity="0.501961" />
<path d="M 332.802 382.438 L 267.499 461.606 L 265.698 455.554 L 322.067 340.456 Z" fill="#000000" fill-opacity="0.501961" />
<path d="M 214 305 L 300 254 L 255 217 Z" fill="#c4c4c4" fill-opacity="0.501961" />
<path d="M 145.667 213.519 L 203.464 223.583 L 206.165 230.778 L 192.431 194.903 Z" fill="#1d1d1d" fill-opacity="0.501961" />
<path d="M 180.041 332.889 C 182.731 323.226, 190.781 321.02, 198.021 327.962 C 205.261 334.904, 208.949 348.364, 206.259 358.027 C 203.569 367.69, 195.519 369.896, 188.279 362.954 C 181.039 356.012, 177.351 342.551, 180.041 332.889" fill="#f1f1f1" fill-opacity="0.501961" />
<path d="M 330.228 391.832 L 348.094 389.638 L 355.772 452.168 L 337.906 454.362 Z" fill="#dedede" fill-opacity="0.501961" />
<path d="M 244 137 L 173 115 L 122 221 Z" fill="#f9f9f9" fill-opacity="0.501961" />
<path d="M 442.113 412.887 C 459.296 430.07, 459.296 457.93, 442.113 475.113 C 424.93 492.296, 397.07 492.296, 379.887 475.113 C 362.704 457.93, 362.704 430.07, 379.887 412.887 C 397.07 395.704, 424.93 395.704, 442.113 412.887" fill="#a6a6a6" fill-opacity="0.501961" />
<path d="M 207.53 475 L 161.374 454.266 L 175.129 475 L 146.846 396.665 Z" fill="#000000" fill-opacity="0.501961" />
<path d="M 276 324 L 231 333 L 275 368 Z" fill="#cecece" fill-opacity="0.501961" />
<path d="M 151.828 338.251 C 153.391 351.92, 153.391 374.08, 151.828 387.749 C 150.266 401.417, 147.734 401.417, 146.172 387.749 C 144.609 374.08, 144.609 351.92, 146.172 338.251 C 147.734 324.583, 150.266 324.583, 151.828 338.251" fill="#000000" fill-opacity="0.501961" />
<path d="M 266 448 L 318 357 L 182 475 Z" fill="#8e8e8e" fill-opacity="0.501961" />
<path d="M 218.67 164.204 C 226.01 134.316, 233.329 134.998, 235.018 165.728 C 236.706 196.459, 232.125 245.6, 224.785 275.489 C 217.446 305.377, 210.127 304.695, 208.438 273.965 C 206.749 243.234, 211.33 194.093, 218.67 164.204" fill="#fefefe" fill-opacity="0.501961" />
<path d="M 155.29 333.747 C 146.397 326.044, 137.341 310.441, 135.064 298.898 C 132.786 287.355, 138.149 284.243, 147.042 291.946 C 155.935 299.65, 164.99 315.252, 167.268 326.795 C 169.545 338.339, 164.183 341.451, 155.29 333.747" fill="#9a9a9a" fill-opacity="0.501961" />
<path d="M 475 475 L 475 -16 L 193.323 -16 L 315.508 53.2537 Z" fill="#ffffff" fill-opacity="0.501961" />
<path d="M 207 126 L 321 64 L 152 28 Z" fill="#000000" fill-opacity="0.501961" />
<path d="M 210.599 42.4912 L 219.341 0.449029 L 217.584 8.31122 L 248.779 40.8906 Z" fill="#7c7c7c" fill-opacity="0.501961" />
<path d="M 278.852 210.691 L 319.514 247.73 L 295.994 331.304 L 288.655 313.923 Z" fill="#d8d8d8" fill-opacity="0.501961" />
<path d="M 298.431 341.806 L 279.198 315.973 L 240.307 289.121 L 225.18 299.942 Z" fill="#000000" fill-opacity="0.501961" />
<path d="M 338.828 129.674 C 340.391 158.573, 340.391 205.427, 338.828 234.326 C 337.266 263.225, 334.734 263.225, 333.172 234.326 C 331.609 205.427, 331.609 158.573, 333.172 129.674 C 334.734 100.775, 337.266 100.775, 338.828 129.674" fill="#a8a8a8" fill-opacity="0.501961" />
<path d="M 241 398 L 172 364 L 197 392 Z" fill="#000000" fill-opacity="0.501961" />
<path d="M 152.926 216.709 L 208.94 221.306 L 176.761 204.216 L 144.091 240.462 Z" fill="#020202" fill-opacity="0.501961" />
<path d="M 233 235 L 280 197 L 246 204 Z" fill="#000000" fill-opacity="0.501961" />
<path d="M 246.556 342.757 C 255.148 345.101, 255.148 348.899, 246.556 351.243 C 237.965 353.586, 224.035 353.586, 215.444 351.243 C 206.852 348.899, 206.852 345.101, 215.444 342.757 C 224.035 340.414, 237.965 340.414, 246.556 342.757" fill="#464646" fill-opacity="0.501961" />
<path d="M 7 -1 L 172 -6 L -16 243 Z" fill="#ffffff" fill-opacity="0.501961" />
<path d="M 296.398 441.401 L 286.075 454.877 L 263.497 475 L 290.517 428.676 Z" fill="#c0c0c0" fill-opacity="0.501961" />
<path d="M 112.538 388.098 C 113.964 381.431, 115.78 381.514, 116.594 388.283 C 117.409 395.052, 116.913 405.944, 115.487 412.612 C 114.061 419.279, 112.245 419.196, 111.43 412.427 C 110.616 405.658, 111.112 394.765, 112.538 388.098" fill="#151515" fill-opacity="0.501961" />
<path d="M 236 407 L 158 394 L 178 437 Z" fill="#d7d7d7" fill-opacity="0.501961" />
<path d="M 288.728 179.507 C 287.14 167.662, 293.997 163.305, 304.045 169.774 C 314.093 176.244, 323.527 191.091, 325.116 202.936 C 326.705 214.78, 319.847 219.138, 309.799 212.668 C 299.751 206.198, 290.317 191.351, 288.728 179.507" fill="#f1f1f1" fill-opacity="0.501961" />
<path d="M 330 302 L 246 300 L 250 272 Z" fill="#989898" fill-opacity="0.501961" />
<path d="M 245 380 L 203 384 L 274 355 Z" fill="#b3b3b3" fill-opacity="0.501961" />
<path d="M 162.157 57.2021 L 326.271 75.7719 L 329.247 90.2017 L 316.946 129.022 Z" fill="#000000" fill-opacity="0.501961" />
<path d="M 128 185 L 111 161 L 140 102 Z" fill="#000000" fill-opacity="0.501961" />
<path d="M 174.575 295.31 C 185.336 294.221, 200.412 299.384, 208.247 306.841 C 216.082 314.298, 213.71 321.226, 202.948 322.314 C 192.187 323.402, 177.111 318.24, 169.276 310.783 C 161.441 303.326, 163.813 296.398, 174.575 295.31" fill="#0d0d0d" fill-opacity="0.501961" />
<path d="M 113 386 L 139 358 L 160 452 Z" fill="#bfbfbf" fill-opacity="0.501961" />
<path d="M 111.846 126.91 L 110.618 163.822 L 109.95 189.855 L 104.493 164.588 Z" fill="#d7d7d7" fill-opacity="0.501961" />
<path d="M 134.996 182.968 L 122.952 190.859 L 124.983 248.119 L 170.838 289.82 Z" fill="#f1f1f1" fill-opacity="0.501961" />
<path d="M 122 110 L 107 101 L 123 135 Z" fill="#aeaeae" fill-opacity="0.501961" />
<path d="M 190.306 218.523 L 203.702 228.989 L 187.694 249.477 L 174.298 239.011 Z" fill="#9c9c9c" fill-opacity="0.501961" />
<path d="M 149.42 368.31 L 151.276 351.155 L 188.813 384.904 L 172.568 422.028 Z" fill="#dcdcdc" fill-opacity="0.501961" />
<path d="M 314.684 362.031 C 313.182 355.617, 313.217 345.227, 314.761 338.824 C 316.305 332.42, 318.774 332.428, 320.275 338.842 C 321.777 345.255, 321.743 355.646, 320.199 362.049 C 318.655 368.452, 316.186 368.444, 314.684 362.031" fill="#000000" fill-opacity="0.501961" />
<path d="M 336 147 L 342 147 L 342 160 L 336 160 Z" fill="#141414" fill-opacity="0.501961" />
<path d="M 285.92 474.636 L 333.42 392.364 L 342.08 397.364 L 294.58 479.636 Z" fill="#9e9e9e" fill-opacity="0.501961" />
<path d="M 190.537 79.049 C 200.589 91.7188, 196.838 107.494, 182.16 114.284 C 167.481 121.074, 147.432 116.308, 137.38 103.638 C 127.328 90.9681, 131.079 75.1928, 145.757 68.4028 C 160.436 61.6128, 180.485 66.3793, 190.537 79.049" fill="#000000" fill-opacity="0.501961" />
<path d="M 338 202 L 343 202 L 343 220 L 338 220 Z" fill="#000000" fill-opacity="0.501961" />
<path d="M 363.419 453.815 L 376.259 475 L 357.912 460.183 L 347.603 378.544 Z" fill="#161616" fill-opacity="0.501961" />
<path d="M 122 201 L 99 179 L 121 226 Z" fill="#010101" fill-opacity="0.501961" />
<path d="M 116 33 L 49 408 L -16 70 Z" fill="#ffffff" fill-opacity="0.501961" />
<path d="M 103.773 89.184 L 157.793 46.3173 L 115.376 87.8401 L 106.434 129.035 Z" fill="#959595" fill-opacity="0.501961" />
<path d="M 305 266 L 396 409 L 366 183 Z" fill="#ffffff" fill-opacity="0.501961" />
<path d="M 381.155 102.827 L 331.756 215.474 L 345.228 142.05 L 320.134 25.9255 Z" fill="#ffffff" fill-opacity="0.501961" />
<path d="M 310.314 406.686 C 316.562 412.935, 316.562 423.065, 310.314 429.314 C 304.065 435.562, 293.935 435.562, 287.686 429.314 C 281.438 423.065, 281.438 412.935, 287.686 406.686 C 293.935 400.438, 304.065 400.438, 310.314 406.686" fill="#000000" fill-opacity="0.501961" />
<path d="M 158.088 224.622 L 168.869 215.642 L 167.224 326.319 L 162.258 344.712 Z" fill="#d1d1d1" fill-opacity="0.501961" />
<path d="M 122.861 74.4366 L 111.957 89.8488 L 115.658 68.6087 L 133.444 53.095 Z" fill="#050505" fill-opacity="0.501961" />
<path d="M 68 116 L -16 408 L 146 353 Z" fill="#ffffff" fill-opacity="0.501961" />
<path d="M 158.151 339.233 C 167.733 347.003, 181.098 361.59, 188.002 371.814 C 194.906 382.038, 192.734 384.027, 183.152 376.257 C 173.57 368.487, 160.206 353.9, 153.302 343.676 C 146.398 333.452, 148.569 331.463, 158.151 339.233" fill="#000000" fill-opacity="0.501961" />
<path d="M 279.384 230.901 L 225.144 244.07 L 272.635 245.572 L 292.036 236.992 Z" fill="#808080" fill-opacity="0.501961" />
<path d="M 117 -16 L 65 43 L 296 -8 Z" fill="#ffffff" fill-opacity="0.501961" />
<path d="M 321.684 317.512 L 301.985 349.083 L 296.367 352.221 L 296.567 387.175 Z" fill="#c6c6c6" fill-opacity="0.501961" />
<path d="M 200.258 29.0156 L 188.311 13.5517 L 220.523 33.2853 L 133.289 50.1008 Z" fill="#030303" fill-opacity="0.501961" />
<path d="M 374 402 L 370 447 L 337 364 Z" fill="#7e7e7e" fill-opacity="0.501961" />
<path d="M 280 309 L 288 309 L 288 363 L 280 363 Z" fill="#020202" fill-opacity="0.501961" />
<path d="M 338.485 452.636 C 343.172 456.151, 343.172 461.849, 338.485 465.364 C 333.799 468.879, 326.201 468.879, 321.515 465.364 C 316.828 461.849, 316.828 456.151, 321.515 452.636 C 326.201 449.121, 333.799 449.121, 338.485 452.636" fill="#000000" fill-opacity="0.501961" />
<path d="M 247.142 296.793 L 216.92 308.685 L 257.448 280.515 L 242.415 311.612 Z" fill="#0e0e0e" fill-opacity="0.501961" />
<path d="M 207.234 128.358 L 218.381 114.703 L 224.486 115.889 L 238.93 131.929 Z" fill="#c8c8c8" fill-opacity="0.501961" />
<path d="M 226 327 L 284 323 L 275 297 Z" fill="#000000" fill-opacity="0.501961" />
<path d="M 283 46 L 229 13 L 268 22 Z" fill="#636363" fill-opacity="0.501961" />
<path d="M 312.536 299.151 C 314.488 307.352, 314.488 320.648, 312.536 328.849 C 310.583 337.05, 307.417 337.05, 305.464 328.849 C 303.512 320.648, 303.512 307.352, 305.464 299.151 C 307.417 290.95, 310.583 290.95, 312.536 299.151" fill="#303030" fill-opacity="0.501961" />
<path d="M 293.403 155.911 C 282.429 160.028, 269.102 154.959, 263.636 144.591 C 258.17 134.222, 262.636 122.479, 273.61 118.362 C 284.584 114.246, 297.912 119.314, 303.377 129.682 C 308.843 140.051, 304.377 151.794, 293.403 155.911" fill="#b9b9b9" fill-opacity="0.501961" />
<path d="M 104.602 136.141 L 141.451 67.9904 L 114.819 91.1972 L 114.024 116.846 Z" fill="#010101" fill-opacity="0.501961" />
<path d="M 154.952 427.622 L 144.419 361.198 L 181.844 455.783 L 169.388 443.426 Z" fill="#000000" fill-opacity="0.501961" />
<path d="M 230.907 118.705 L 251.826 121.092 L 301.311 47.2078 L 125.015 83.8315 Z" fill="#000000" fill-opacity="0.501961" />
<path d="M 231.137 322.079 L 222.171 322.864 L 220.863 307.921 L 229.829 307.136 Z" fill="#a9a9a9" fill-opacity="0.501961" />
<path d="M 324.537 193.455 L 328.803 159.102 L 360.591 189.713 L 328.835 174.868 Z" fill="#bfbfbf" fill-opacity="0.501961" />
</g>
</svg>
