<?xml version="1.0" encoding="utf-8"?>
<!-- Generated by IcoMoon.io -->
<!DOCTYPE svg PUBLIC "-//W3C//DTD SVG 1.1//EN" "http://www.w3.org/Graphics/SVG/1.1/DTD/svg11.dtd">
<svg version="1.1" xmlns="http://www.w3.org/2000/svg" xmlns:xlink="http://www.w3.org/1999/xlink" width="752" height="32" viewBox="0 0 752 32">
<svg id="icon-mail" width="32" height="32" viewBox="0 0 32 32" x="0" y="0">
<path d="M29.728 26.848v-13.696q-0.576 0.64-1.248 1.152-4.768 3.68-7.616 6.048-0.896 0.768-1.472 1.184t-1.536 0.896-1.824 0.416h-0.064q-0.832 0-1.824-0.416t-1.536-0.896-1.472-1.184q-2.816-2.368-7.616-6.048-0.672-0.512-1.248-1.152v13.696q0 0.224 0.192 0.416t0.384 0.16h26.304q0.224 0 0.384-0.16t0.192-0.416zM29.728 8.096v-0.448t-0.032-0.224-0.032-0.224-0.096-0.16-0.16-0.128-0.256-0.064h-26.304q-0.224 0-0.384 0.192t-0.192 0.384q0 3.008 2.656 5.088 3.424 2.688 7.136 5.632 0.128 0.096 0.64 0.544t0.8 0.672 0.8 0.544 0.896 0.512 0.768 0.16h0.064q0.352 0 0.768-0.16t0.896-0.512 0.8-0.544 0.8-0.672 0.64-0.544q3.712-2.944 7.168-5.632 0.96-0.768 1.792-2.080t0.832-2.336zM32 7.424v19.424q0 1.184-0.832 2.016t-2.016 0.864h-26.304q-1.152 0-2.016-0.864t-0.832-2.016v-19.424q0-1.184 0.832-2.016t2.016-0.832h26.304q1.184 0 2.016 0.832t0.832 2.016z"></path>
</svg>
<svg id="icon-link-ext" width="32" height="32" viewBox="0 0 32 32" x="48" y="0">
<path d="M25.152 16.576v5.696q0 2.144-1.504 3.648t-3.648 1.504h-14.848q-2.144 0-3.648-1.504t-1.504-3.648v-14.848q0-2.112 1.504-3.616t3.648-1.536h12.576q0.224 0 0.384 0.16t0.16 0.416v1.152q0 0.256-0.16 0.416t-0.384 0.16h-12.576q-1.184 0-2.016 0.832t-0.864 2.016v14.848q0 1.184 0.864 2.016t2.016 0.864h14.848q1.184 0 2.016-0.864t0.832-2.016v-5.696q0-0.256 0.16-0.416t0.416-0.16h1.152q0.256 0 0.416 0.16t0.16 0.416zM32 1.152v9.12q0 0.48-0.352 0.8t-0.8 0.352-0.8-0.352l-3.136-3.136-11.648 11.648q-0.16 0.192-0.416 0.192t-0.384-0.192l-2.048-2.048q-0.192-0.16-0.192-0.384t0.192-0.416l11.648-11.648-3.136-3.136q-0.352-0.352-0.352-0.8t0.352-0.8 0.8-0.352h9.12q0.48 0 0.8 0.352t0.352 0.8z"></path>
</svg>
<svg id="icon-twitter" width="30" height="32" viewBox="0 0 30 32" x="96" y="0">
<path d="M28.928 7.296q-1.184 1.728-2.88 2.976 0 0.256 0 0.736 0 2.336-0.672 4.64t-2.048 4.448-3.296 3.744-4.608 2.624-5.792 0.96q-4.832 0-8.832-2.592 0.608 0.064 1.376 0.064 4.032 0 7.168-2.464-1.888-0.032-3.36-1.152t-2.048-2.848q0.608 0.096 1.088 0.096 0.768 0 1.536-0.192-2.016-0.416-3.328-1.984t-1.312-3.68v-0.064q1.216 0.672 2.624 0.736-1.184-0.8-1.888-2.048t-0.704-2.752q0-1.568 0.8-2.912 2.176 2.656 5.248 4.256t6.656 1.76q-0.16-0.672-0.16-1.312 0-2.4 1.696-4.064t4.064-1.696q2.528 0 4.224 1.824 1.952-0.384 3.68-1.408-0.672 2.048-2.56 3.2 1.664-0.192 3.328-0.896z"></path>
</svg>
<svg id="icon-facebook" width="18" height="32" viewBox="0 0 18 32" x="144" y="0">
<path d="M17.12 0.224v4.704h-2.784q-1.536 0-2.080 0.64t-0.544 1.92v3.392h5.248l-0.704 5.28h-4.544v13.568h-5.472v-13.568h-4.544v-5.28h4.544v-3.904q0-3.328 1.856-5.152t4.96-1.824q2.624 0 4.064 0.224z"></path>
</svg>
<svg id="icon-github-circled" width="27" height="32" viewBox="0 0 27 32" x="192" y="0">
<path d="M13.728 2.272q3.712 0 6.88 1.856t4.992 4.992 1.824 6.88q0 4.48-2.624 8.064t-6.752 4.96q-0.48 0.096-0.704-0.128t-0.224-0.544q0-0.032 0-1.376t0-2.4q0-1.728-0.928-2.528 1.024-0.096 1.824-0.32t1.696-0.704 1.44-1.184 0.96-1.856 0.352-2.688q0-2.144-1.408-3.68 0.672-1.632-0.128-3.648-0.512-0.16-1.472 0.192t-1.632 0.8l-0.672 0.416q-1.664-0.48-3.424-0.48t-3.456 0.48q-0.256-0.192-0.736-0.48t-1.504-0.704-1.504-0.224q-0.8 2.016-0.16 3.648-1.408 1.536-1.408 3.68 0 1.504 0.384 2.656t0.928 1.888 1.44 1.184 1.664 0.704 1.824 0.32q-0.672 0.64-0.864 1.856-0.384 0.16-0.8 0.256t-1.024 0.096-1.152-0.384-0.992-1.12q-0.352-0.576-0.864-0.928t-0.896-0.448l-0.352-0.032q-0.384 0-0.512 0.064t-0.096 0.224 0.16 0.256 0.224 0.192l0.128 0.096q0.384 0.192 0.768 0.672t0.576 0.928l0.192 0.416q0.224 0.672 0.768 1.088t1.184 0.544 1.248 0.096 0.992-0.032l0.416-0.096q0 0.704 0 1.6t0.032 0.96q0 0.32-0.256 0.544t-0.704 0.128q-4.128-1.376-6.752-4.96t-2.624-8.064q0-3.744 1.856-6.88t4.96-4.992 6.912-1.856zM5.184 21.984q0.064-0.128-0.096-0.224-0.192-0.032-0.256 0.032-0.032 0.128 0.128 0.224t0.224-0.032zM5.76 22.592q0.128-0.096-0.032-0.288-0.192-0.16-0.288-0.064-0.128 0.096 0.032 0.288t0.288 0.064zM6.272 23.392q0.192-0.128 0-0.352-0.128-0.224-0.288-0.096-0.16 0.096 0 0.32t0.288 0.128zM7.040 24.128q0.128-0.128-0.064-0.32-0.224-0.224-0.352-0.064-0.16 0.16 0.064 0.352 0.192 0.192 0.352 0.032zM8.064 24.576q0.032-0.192-0.256-0.288-0.256-0.064-0.32 0.128t0.224 0.288q0.256 0.096 0.352-0.128zM9.184 24.672q0-0.224-0.32-0.192-0.288 0-0.288 0.192 0 0.224 0.32 0.192 0.288 0 0.288-0.192zM10.208 24.512q-0.032-0.224-0.32-0.16-0.288 0.032-0.256 0.256t0.32 0.128 0.256-0.224z"></path>
</svg>
<svg id="icon-mail-alt" width="32" height="32" viewBox="0 0 32 32" x="240" y="0">
<path d="M32 12.672v14.176q0 1.184-0.832 2.016t-2.016 0.864h-26.304q-1.152 0-2.016-0.864t-0.832-2.016v-14.176q0.8 0.864 1.792 1.568 6.464 4.384 8.896 6.144 1.024 0.768 1.632 1.184t1.696 0.864 1.952 0.416h0.064q0.896 0 1.952-0.416t1.696-0.864 1.632-1.184q3.040-2.176 8.896-6.144 1.024-0.704 1.792-1.568zM32 7.424q0 1.408-0.864 2.688t-2.176 2.208q-6.72 4.672-8.384 5.792-0.16 0.128-0.736 0.544t-0.96 0.704-0.928 0.576-1.024 0.48-0.896 0.16h-0.064q-0.384 0-0.864-0.16t-1.024-0.48-0.96-0.576-0.96-0.704-0.736-0.544q-1.632-1.12-4.704-3.232t-3.648-2.56q-1.12-0.736-2.080-2.048t-0.992-2.464q0-1.376 0.736-2.304t2.112-0.928h26.304q1.152 0 2.016 0.832t0.832 2.016z"></path>
</svg>
<svg id="icon-linkedin" width="27" height="32" viewBox="0 0 27 32" x="288" y="0">
<path d="M6.24 11.168v17.696h-5.888v-17.696h5.888zM6.624 5.696q0 1.312-0.928 2.176t-2.4 0.864h-0.032q-1.472 0-2.368-0.864t-0.896-2.176 0.928-2.176 2.4-0.864 2.368 0.864 0.928 2.176zM27.424 18.72v10.144h-5.856v-9.472q0-1.888-0.736-2.944t-2.272-1.056q-1.12 0-1.856 0.608t-1.152 1.536q-0.192 0.544-0.192 1.44v9.888h-5.888q0.032-7.136 0.032-11.552t0-5.28l-0.032-0.864h5.888v2.56h-0.032q0.352-0.576 0.736-0.992t0.992-0.928 1.568-0.768 2.048-0.288q3.040 0 4.896 2.016t1.856 5.952z"></path>
</svg>
<svg id="icon-link-ext-alt" width="27" height="32" viewBox="0 0 27 32" x="336" y="0">
<path d="M22.848 16.576v-8.576q0-0.48-0.32-0.8t-0.8-0.352h-8.576q-0.768 0-1.056 0.704-0.32 0.736 0.256 1.248l2.56 2.56-9.536 9.536q-0.352 0.352-0.352 0.832t0.352 0.8l1.824 1.824q0.352 0.32 0.8 0.32t0.8-0.32l9.536-9.536 2.592 2.56q0.32 0.352 0.8 0.352 0.192 0 0.448-0.096 0.672-0.32 0.672-1.056zM27.424 7.424v17.152q0 2.112-1.504 3.616t-3.648 1.536h-17.12q-2.144 0-3.648-1.536t-1.504-3.616v-17.152q0-2.112 1.504-3.616t3.648-1.536h17.12q2.144 0 3.648 1.536t1.504 3.616z"></path>
</svg>
<svg id="icon-stackoverflow" width="27" height="32" viewBox="0 0 27 32" x="384" y="0">
<path d="M23.008 29.152h-19.968v-8.576h-2.848v11.424h25.696v-11.424h-2.88v8.576zM6.208 19.776l0.576-2.784 13.984 2.944-0.576 2.784zM8.032 13.12l1.216-2.624 12.928 6.048-1.184 2.592zM11.616 6.752l1.824-2.208 10.976 9.184-1.824 2.176zM18.72 0l8.512 11.456-2.272 1.696-8.544-11.424zM5.888 26.272v-2.848h14.304v2.848h-14.304z"></path>
</svg>
<svg id="icon-stackexchange" width="23" height="32" viewBox="0 0 23 32" x="432" y="0">
<path d="M22.496 22.368v1.184q0 1.504-1.024 2.592t-2.496 1.056h-1.024l-4.64 4.8v-4.8h-9.44q-1.44 0-2.464-1.056t-1.024-2.592v-1.184h22.112zM22.496 16.544v4.576h-22.112v-4.576h22.112zM22.496 10.688v4.576h-22.112v-4.576h22.112zM22.496 8.192v1.184h-22.112v-1.184q0-1.504 1.024-2.56t2.464-1.056h15.104q1.44 0 2.496 1.056t1.024 2.56z"></path>
</svg>
<svg id="icon-git" width="32" height="32" viewBox="0 0 32 32" x="480" y="0">
<path d="M10.624 27.040q0-1.792-2.944-1.792-2.816 0-2.816 1.856 0 1.824 3.072 1.824 2.688 0 2.688-1.888zM9.568 13.536q0-1.088-0.544-1.792t-1.568-0.736q-2.208 0-2.208 2.592 0 2.4 2.208 2.4 2.112 0 2.112-2.464zM14.368 7.776v3.584q-0.64 0.224-1.408 0.416 0.288 0.768 0.288 1.504 0 2.24-1.312 3.84t-3.52 2.016q-0.704 0.16-1.056 0.48t-0.352 1.056q0 0.544 0.416 0.896t1.024 0.576 1.408 0.384 1.536 0.48 1.408 0.672 1.024 1.12 0.416 1.76q0 5.44-6.496 5.44-1.216 0-2.304-0.224t-2.080-0.736-1.568-1.472-0.576-2.272q0-2.944 3.264-4v-0.096q-1.216-0.704-1.216-2.24 0-1.952 1.12-2.432v-0.096q-1.28-0.416-2.112-1.92t-0.864-2.976q0-2.464 1.696-4.128t4.192-1.632q1.728 0 3.2 0.832 1.728 0 3.872-0.832zM20.064 23.488h-3.968q0.064-0.8 0.064-2.368v-10.88q0-1.696-0.064-2.304h3.968q-0.096 0.608-0.096 2.208v10.976q0 1.568 0.096 2.368zM30.784 19.52v3.52q-1.28 0.704-3.104 0.704-1.12 0-1.92-0.384t-1.248-0.864-0.704-1.408-0.32-1.632-0.064-1.856v-6.272h0.032v-0.064q-0.128 0-0.352 0t-0.32-0.032q-0.384 0-1.056 0.096v-3.392h1.728v-1.344q0-0.96-0.128-1.6h4.064q-0.096 0.736-0.096 2.944h3.040v3.392q-0.256 0-0.768-0.032t-0.768-0.032h-1.504v6.528q0 2.336 1.536 2.336 1.088 0 1.952-0.608zM20.512 2.624q0 1.024-0.704 1.824t-1.728 0.768q-1.024 0-1.728-0.768t-0.736-1.824q0-1.056 0.704-1.824t1.76-0.8q1.056 0 1.728 0.8t0.704 1.824z"></path>
</svg>
</svg>
