<svg version="1.1" width="460" height="460" xmlns="http://www.w3.org/2000/svg">
<rect x="0" y="0" width="460" height="460" fill="#c0c0c0" />
<g transform="scale(1.79688, 1.79688)">
<path d="M 114 -16 L 199 63 L 53 69 Z" fill="#000000" fill-opacity="0.501961" />
<path d="M 63 179 L 186 271 L 175 154 Z" fill="#0b0b0b" fill-opacity="0.501961" />
<path d="M 244 271 L 271 -1 L 165 -11 Z" fill="#ffffff" fill-opacity="0.501961" />
<path d="M 93 180 L -16 246 L 4 -16 Z" fill="#ffffff" fill-opacity="0.501961" />
<path d="M 53 87 L 187 35 L 80 13 Z" fill="#000000" fill-opacity="0.501961" />
<path d="M 191 124 L 176 32 L 129 11 Z" fill="#000000" fill-opacity="0.501961" />
<path d="M 271 261 L 256 -16 L 151 162 Z" fill="#ffffff" fill-opacity="0.501961" />
<path d="M 155 -3 L -16 52 L 2 -9 Z" fill="#ffffff" fill-opacity="0.501961" />
<path d="M 68 127 L 54 99 L 81 40 Z" fill="#000000" fill-opacity="0.501961" />
<path d="M 106 255 L 91 271 L 79 196 Z" fill="#000000" fill-opacity="0.501961" />
<path d="M 8 252 L 80 -10 L -16 1 Z" fill="#ffffff" fill-opacity="0.501961" />
<path d="M 169 111 L 134 108 L 131 136 Z" fill="#000000" fill-opacity="0.501961" />
<path d="M 170 73 L 70 65 L 122 129 Z" fill="#ffffff" fill-opacity="0.501961" />
<path d="M 162 189 L 117 214 L 99 180 Z" fill="#f4f4f4" fill-opacity="0.501961" />
<path d="M 170 247 L 184 198 L 104 215 Z" fill="#060606" fill-opacity="0.501961" />
<path d="M 116 7 L 181 64 L 55 59 Z" fill="#000000" fill-opacity="0.501961" />
<path d="M 261 209 L 155 -9 L 271 -3 Z" fill="#ffffff" fill-opacity="0.501961" />
<path d="M 79 127 L 98 108 L 116 124 Z" fill="#000000" fill-opacity="0.501961" />
<path d="M -16 229 L 25 -16 L 81 198 Z" fill="#ffffff" fill-opacity="0.501961" />
<path d="M 93 162 L 94 185 L 175 175 Z" fill="#000000" fill-opacity="0.501961" />
<path d="M 175 188 L 242 271 L 103 271 Z" fill="#666666" fill-opacity="0.501961" />
<path d="M 184 199 L 271 240 L 207 -16 Z" fill="#ffffff" fill-opacity="0.501961" />
<path d="M 62 40 L 65 117 L 94 11 Z" fill="#060606" fill-opacity="0.501961" />
<path d="M 180 34 L 147 15 L 185 121 Z" fill="#000000" fill-opacity="0.501961" />
<path d="M 189 -16 L 70 4 L 254 22 Z" fill="#ffffff" fill-opacity="0.501961" />
<path d="M 185 217 L 144 261 L 181 190 Z" fill="#000000" fill-opacity="0.501961" />
<path d="M -16 252 L 98 271 L 77 206 Z" fill="#8c8c8c" fill-opacity="0.501961" />
<path d="M 117 270 L 82 214 L 95 263 Z" fill="#000000" fill-opacity="0.501961" />
<path d="M 68 113 L 84 68 L 177 104 Z" fill="#ffffff" fill-opacity="0.501961" />
<path d="M -16 243 L -16 102 L 118 141 Z" fill="#ffffff" fill-opacity="0.501961" />
<path d="M 180 58 L 87 16 L 69 67 Z" fill="#000000" fill-opacity="0.501961" />
<path d="M 147 107 L 171 123 L 131 121 Z" fill="#000000" fill-opacity="0.501961" />
<path d="M -16 1 L 46 166 L 65 -7 Z" fill="#ffffff" fill-opacity="0.501961" />
<path d="M 155 185 L 100 179 L 104 206 Z" fill="#c7c7c7" fill-opacity="0.501961" />
<path d="M 82 184 L 108 216 L 97 191 Z" fill="#000000" fill-opacity="0.501961" />
<path d="M 195 127 L 177 177 L 192 233 Z" fill="#ffffff" fill-opacity="0.501961" />
<path d="M 180 177 L 127 247 L 155 239 Z" fill="#a5a5a5" fill-opacity="0.501961" />
<path d="M 208 64 L 271 2 L 123 -16 Z" fill="#ffffff" fill-opacity="0.501961" />
<path d="M 232 271 L 190 206 L 271 238 Z" fill="#a8a8a8" fill-opacity="0.501961" />
<path d="M 137 169 L 163 191 L 157 166 Z" fill="#000000" fill-opacity="0.501961" />
<path d="M 132 158 L 100 165 L 126 117 Z" fill="#fcfcfc" fill-opacity="0.501961" />
<path d="M 84 191 L 94 234 L 120 233 Z" fill="#ececec" fill-opacity="0.501961" />
<path d="M 134 234 L 146 218 L 95 206 Z" fill="#010101" fill-opacity="0.501961" />
<path d="M 201 268 L 196 227 L 215 271 Z" fill="#060606" fill-opacity="0.501961" />
<path d="M 169 72 L 169 128 L 145 60 Z" fill="#d0d0d0" fill-opacity="0.501961" />
<path d="M 143 216 L 173 162 L 175 185 Z" fill="#2a2a2a" fill-opacity="0.501961" />
<path d="M 78 161 L 82 207 L 88 184 Z" fill="#414141" fill-opacity="0.501961" />
<path d="M 187 116 L 193 106 L 190 120 Z" fill="#000000" fill-opacity="0.501961" />
<path d="M 109 108 L 77 114 L 109 133 Z" fill="#3c3c3c" fill-opacity="0.501961" />
<path d="M -16 234 L 80 195 L 80 107 Z" fill="#ffffff" fill-opacity="0.501961" />
<path d="M 139 -5 L -16 -2 L 19 42 Z" fill="#ffffff" fill-opacity="0.501961" />
<path d="M 136 167 L 119 170 L 143 156 Z" fill="#000000" fill-opacity="0.501961" />
<path d="M 157 201 L 119 215 L 119 185 Z" fill="#989898" fill-opacity="0.501961" />
<path d="M 142 163 L 143 120 L 179 164 Z" fill="#d6d6d6" fill-opacity="0.501961" />
<path d="M 171 242 L 154 233 L 182 201 Z" fill="#000000" fill-opacity="0.501961" />
<path d="M 176 251 L 200 271 L 189 251 Z" fill="#000000" fill-opacity="0.501961" />
<path d="M 70 68 L 60 47 L 54 110 Z" fill="#7a7a7a" fill-opacity="0.501961" />
<path d="M 180 248 L 184 209 L 199 252 Z" fill="#cbcbcb" fill-opacity="0.501961" />
<path d="M 271 241 L 180 192 L 230 -16 Z" fill="#ffffff" fill-opacity="0.501961" />
<path d="M 174 181 L 163 214 L 173 205 Z" fill="#e0e0e0" fill-opacity="0.501961" />
<path d="M 158 117 L 159 133 L 130 136 Z" fill="#7e7e7e" fill-opacity="0.501961" />
<path d="M 98 165 L 110 171 L 94 187 Z" fill="#000000" fill-opacity="0.501961" />
<path d="M 73 101 L 62 99 L 74 63 Z" fill="#000000" fill-opacity="0.501961" />
<path d="M 75 167 L 81 182 L 110 154 Z" fill="#8e8e8e" fill-opacity="0.501961" />
<path d="M 65 139 L 93 122 L 93 179 Z" fill="#e0e0e0" fill-opacity="0.501961" />
<path d="M 82 199 L 81 219 L 94 240 Z" fill="#000000" fill-opacity="0.501961" />
<path d="M 137 13 L 183 52 L 112 65 Z" fill="#000000" fill-opacity="0.501961" />
<path d="M 155 116 L 164 187 L 173 150 Z" fill="#cecece" fill-opacity="0.501961" />
<path d="M 110 65 L 74 87 L 78 66 Z" fill="#c9c9c9" fill-opacity="0.501961" />
<path d="M 271 95 L 181 62 L 204 -16 Z" fill="#ffffff" fill-opacity="0.501961" />
<path d="M 62 43 L 93 5 L 80 40 Z" fill="#4e4e4e" fill-opacity="0.501961" />
<path d="M 181 100 L 188 68 L 191 101 Z" fill="#909090" fill-opacity="0.501961" />
<path d="M -3 219 L -16 57 L 84 -16 Z" fill="#ffffff" fill-opacity="0.501961" />
<path d="M 65 222 L 62 219 L 62 230 Z" fill="#000000" fill-opacity="0.501961" />
<path d="M 233 225 L 188 202 L 168 96 Z" fill="#ffffff" fill-opacity="0.501961" />
<path d="M 138 188 L 136 196 L 115 192 Z" fill="#414141" fill-opacity="0.501961" />
<path d="M 97 122 L 111 120 L 92 110 Z" fill="#000000" fill-opacity="0.501961" />
<path d="M 187 108 L 174 49 L 172 90 Z" fill="#000000" fill-opacity="0.501961" />
<path d="M 168 221 L 178 187 L 181 200 Z" fill="#000000" fill-opacity="0.501961" />
<path d="M 155 180 L 152 200 L 127 211 Z" fill="#cacaca" fill-opacity="0.501961" />
<path d="M 105 179 L 104 202 L 122 204 Z" fill="#eeeeee" fill-opacity="0.501961" />
<path d="M 271 -6 L 271 53 L 105 -3 Z" fill="#ffffff" fill-opacity="0.501961" />
<path d="M 67 115 L 167 101 L 146 62 Z" fill="#ececec" fill-opacity="0.501961" />
<path d="M 123 269 L 87 233 L 102 264 Z" fill="#000000" fill-opacity="0.501961" />
<path d="M 158 230 L 96 235 L 118 271 Z" fill="#aaaaaa" fill-opacity="0.501961" />
<path d="M 116 166 L 124 160 L 128 180 Z" fill="#a2a2a2" fill-opacity="0.501961" />
<path d="M 160 264 L 184 216 L 177 254 Z" fill="#979797" fill-opacity="0.501961" />
<path d="M 67 210 L 60 271 L 94 252 Z" fill="#b4b4b4" fill-opacity="0.501961" />
<path d="M 111 10 L 126 5 L 143 27 Z" fill="#595959" fill-opacity="0.501961" />
<path d="M 151 53 L 86 68 L 86 15 Z" fill="#000000" fill-opacity="0.501961" />
<path d="M 69 125 L 72 149 L 52 109 Z" fill="#a8a8a8" fill-opacity="0.501961" />
<path d="M 130 182 L 134 162 L 159 180 Z" fill="#050505" fill-opacity="0.501961" />
<path d="M 140 113 L 130 127 L 154 111 Z" fill="#000000" fill-opacity="0.501961" />
<path d="M 162 193 L 159 169 L 152 214 Z" fill="#0b0b0b" fill-opacity="0.501961" />
<path d="M 134 130 L 144 120 L 147 125 Z" fill="#f3f3f3" fill-opacity="0.501961" />
<path d="M 104 122 L 118 123 L 92 137 Z" fill="#aeaeae" fill-opacity="0.501961" />
<path d="M 190 206 L 195 220 L 196 214 Z" fill="#262626" fill-opacity="0.501961" />
<path d="M 196 96 L 191 122 L 180 122 Z" fill="#717171" fill-opacity="0.501961" />
<path d="M 160 240 L 150 260 L 163 248 Z" fill="#bfbfbf" fill-opacity="0.501961" />
<path d="M 68 114 L 66 121 L 56 102 Z" fill="#060606" fill-opacity="0.501961" />
<path d="M 158 -4 L 150 22 L 222 11 Z" fill="#ffffff" fill-opacity="0.501961" />
<path d="M 120 -16 L 40 57 L -16 22 Z" fill="#ffffff" fill-opacity="0.501961" />
<path d="M -16 270 L 53 206 L 0 232 Z" fill="#bcbcbc" fill-opacity="0.501961" />
<path d="M 82 185 L 60 134 L 68 215 Z" fill="#ffffff" fill-opacity="0.501961" />
<path d="M 61 84 L 54 79 L 63 102 Z" fill="#c0c0c0" fill-opacity="0.501961" />
<path d="M 73 170 L 68 105 L 93 138 Z" fill="#eaeaea" fill-opacity="0.501961" />
<path d="M 91 16 L 175 72 L 182 44 Z" fill="#030303" fill-opacity="0.501961" />
<path d="M 177 247 L 209 264 L 184 260 Z" fill="#000000" fill-opacity="0.501961" />
<path d="M 66 122 L 74 83 L 62 66 Z" fill="#050505" fill-opacity="0.501961" />
<path d="M 166 191 L 130 249 L 173 209 Z" fill="#6d6d6d" fill-opacity="0.501961" />
<path d="M 165 247 L 179 191 L 181 222 Z" fill="#000000" fill-opacity="0.501961" />
<path d="M 146 108 L 164 109 L 166 125 Z" fill="#343434" fill-opacity="0.501961" />
<path d="M 105 271 L 117 223 L 130 226 Z" fill="#c0c0c0" fill-opacity="0.501961" />
<path d="M 169 71 L 155 62 L 144 111 Z" fill="#c9c9c9" fill-opacity="0.501961" />
<path d="M 190 87 L 181 90 L 196 118 Z" fill="#cfcfcf" fill-opacity="0.501961" />
<path d="M 143 139 L 177 128 L 151 157 Z" fill="#eeeeee" fill-opacity="0.501961" />
<path d="M 178 61 L 187 62 L 189 90 Z" fill="#989898" fill-opacity="0.501961" />
<path d="M 95 167 L 129 169 L 92 181 Z" fill="#020202" fill-opacity="0.501961" />
<path d="M 271 54 L 164 -2 L 263 249 Z" fill="#ffffff" fill-opacity="0.501961" />
<path d="M 141 228 L 154 206 L 117 222 Z" fill="#000000" fill-opacity="0.501961" />
<path d="M 124 21 L 128 65 L 178 56 Z" fill="#000000" fill-opacity="0.501961" />
<path d="M 90 193 L 102 207 L 100 188 Z" fill="#000000" fill-opacity="0.501961" />
<path d="M 119 239 L 88 219 L 84 189 Z" fill="#dcdcdc" fill-opacity="0.501961" />
<path d="M 79 198 L 83 202 L 84 188 Z" fill="#111111" fill-opacity="0.501961" />
<path d="M 182 165 L 137 166 L 138 151 Z" fill="#a5a5a5" fill-opacity="0.501961" />
<path d="M 118 71 L 81 33 L 115 11 Z" fill="#070707" fill-opacity="0.501961" />
<path d="M 64 68 L 68 70 L 67 60 Z" fill="#c1c1c1" fill-opacity="0.501961" />
<path d="M 167 40 L 170 27 L 141 11 Z" fill="#3c3c3c" fill-opacity="0.501961" />
<path d="M 152 271 L 126 271 L 146 243 Z" fill="#d8d8d8" fill-opacity="0.501961" />
<path d="M 122 64 L 113 73 L 139 67 Z" fill="#a7a7a7" fill-opacity="0.501961" />
<path d="M 72 58 L 68 34 L 64 41 Z" fill="#3c3c3c" fill-opacity="0.501961" />
<path d="M 79 35 L 67 41 L 78 29 Z" fill="#959595" fill-opacity="0.501961" />
<path d="M 85 271 L 80 198 L 72 236 Z" fill="#979797" fill-opacity="0.501961" />
<path d="M 16 255 L 29 227 L 69 258 Z" fill="#8e8e8e" fill-opacity="0.501961" />
<path d="M 100 188 L 101 180 L 128 186 Z" fill="#e3e3e3" fill-opacity="0.501961" />
<path d="M 271 255 L 208 223 L 202 267 Z" fill="#a7a7a7" fill-opacity="0.501961" />
<path d="M 208 60 L 176 185 L 271 243 Z" fill="#ffffff" fill-opacity="0.501961" />
<path d="M 84 229 L 97 245 L 83 207 Z" fill="#000000" fill-opacity="0.501961" />
<path d="M 152 127 L 156 112 L 145 122 Z" fill="#1f1f1f" fill-opacity="0.501961" />
<path d="M -16 135 L 56 41 L 57 96 Z" fill="#ffffff" fill-opacity="0.501961" />
<path d="M 130 132 L 134 114 L 128 113 Z" fill="#848484" fill-opacity="0.501961" />
<path d="M 140 82 L 77 112 L 98 66 Z" fill="#f5f5f5" fill-opacity="0.501961" />
<path d="M 149 206 L 121 215 L 111 207 Z" fill="#737373" fill-opacity="0.501961" />
<path d="M 90 16 L 147 -8 L 111 -16 Z" fill="#ffffff" fill-opacity="0.501961" />
<path d="M 128 162 L 128 169 L 144 158 Z" fill="#1a1a1a" fill-opacity="0.501961" />
<path d="M 175 186 L 175 222 L 182 203 Z" fill="#000000" fill-opacity="0.501961" />
<path d="M 77 27 L 137 34 L 98 15 Z" fill="#121212" fill-opacity="0.501961" />
<path d="M 162 251 L 162 271 L 139 271 Z" fill="#000000" fill-opacity="0.501961" />
<path d="M 167 100 L 149 65 L 125 116 Z" fill="#dddddd" fill-opacity="0.501961" />
<path d="M 231 246 L 244 225 L 202 210 Z" fill="#cecece" fill-opacity="0.501961" />
<path d="M 180 98 L 181 120 L 185 113 Z" fill="#373737" fill-opacity="0.501961" />
<path d="M 152 181 L 145 203 L 135 184 Z" fill="#c7c7c7" fill-opacity="0.501961" />
<path d="M 90 188 L 96 167 L 73 160 Z" fill="#9c9c9c" fill-opacity="0.501961" />
<path d="M 166 104 L 185 144 L 179 104 Z" fill="#f0f0f0" fill-opacity="0.501961" />
<path d="M 9 -16 L -16 223 L 80 197 Z" fill="#ffffff" fill-opacity="0.501961" />
<path d="M 134 135 L 117 110 L 116 166 Z" fill="#ececec" fill-opacity="0.501961" />
<path d="M 271 43 L 176 -16 L 196 102 Z" fill="#ffffff" fill-opacity="0.501961" />
<path d="M 122 182 L 159 178 L 157 168 Z" fill="#010101" fill-opacity="0.501961" />
<path d="M 214 248 L 195 222 L 209 264 Z" fill="#737373" fill-opacity="0.501961" />
<path d="M 52 119 L 63 116 L 52 99 Z" fill="#d9d9d9" fill-opacity="0.501961" />
<path d="M 138 20 L 128 12 L 152 16 Z" fill="#020202" fill-opacity="0.501961" />
<path d="M 101 135 L 111 129 L 94 123 Z" fill="#666666" fill-opacity="0.501961" />
<path d="M 78 122 L 83 112 L 103 108 Z" fill="#949494" fill-opacity="0.501961" />
<path d="M 187 88 L 188 77 L 191 83 Z" fill="#3d3d3d" fill-opacity="0.501961" />
<path d="M 93 120 L 84 132 L 96 130 Z" fill="#cacaca" fill-opacity="0.501961" />
<path d="M 188 115 L 189 121 L 191 112 Z" fill="#000000" fill-opacity="0.501961" />
<path d="M 61 79 L 55 90 L 66 112 Z" fill="#8a8a8a" fill-opacity="0.501961" />
<path d="M 179 179 L 190 165 L 189 219 Z" fill="#ffffff" fill-opacity="0.501961" />
<path d="M 66 62 L 75 58 L 70 51 Z" fill="#626262" fill-opacity="0.501961" />
<path d="M 117 122 L 97 109 L 115 112 Z" fill="#a3a3a3" fill-opacity="0.501961" />
<path d="M 110 120 L 86 119 L 99 111 Z" fill="#060606" fill-opacity="0.501961" />
<path d="M 193 225 L 182 247 L 198 256 Z" fill="#c6c6c6" fill-opacity="0.501961" />
<path d="M 179 102 L 184 83 L 171 78 Z" fill="#000000" fill-opacity="0.501961" />
<path d="M 107 24 L 123 19 L 120 25 Z" fill="#595959" fill-opacity="0.501961" />
<path d="M 157 110 L 131 127 L 139 111 Z" fill="#030303" fill-opacity="0.501961" />
<path d="M 144 -16 L 207 7 L 154 21 Z" fill="#ffffff" fill-opacity="0.501961" />
<path d="M 174 165 L 174 187 L 166 168 Z" fill="#515151" fill-opacity="0.501961" />
<path d="M 141 227 L 162 225 L 152 212 Z" fill="#4c4c4c" fill-opacity="0.501961" />
<path d="M 170 247 L 167 271 L 165 257 Z" fill="#f5f5f5" fill-opacity="0.501961" />
<path d="M 170 67 L 148 61 L 175 80 Z" fill="#7e7e7e" fill-opacity="0.501961" />
<path d="M 166 195 L 174 192 L 170 205 Z" fill="#d6d6d6" fill-opacity="0.501961" />
<path d="M 141 17 L 176 45 L 171 73 Z" fill="#010101" fill-opacity="0.501961" />
<path d="M 170 53 L 181 59 L 181 66 Z" fill="#424242" fill-opacity="0.501961" />
<path d="M 108 254 L 90 245 L 84 225 Z" fill="#000000" fill-opacity="0.501961" />
<path d="M 123 180 L 118 169 L 137 169 Z" fill="#636363" fill-opacity="0.501961" />
<path d="M 156 106 L 170 124 L 165 108 Z" fill="#9f9f9f" fill-opacity="0.501961" />
<path d="M 124 260 L 98 241 L 86 211 Z" fill="#bfbfbf" fill-opacity="0.501961" />
<path d="M 78 29 L 69 32 L 63 41 Z" fill="#000000" fill-opacity="0.501961" />
<path d="M 122 180 L 113 181 L 108 170 Z" fill="#000000" fill-opacity="0.501961" />
<path d="M 95 271 L 77 245 L 80 212 Z" fill="#999999" fill-opacity="0.501961" />
<path d="M 184 154 L 173 153 L 178 179 Z" fill="#c8c8c8" fill-opacity="0.501961" />
<path d="M 58 55 L 69 43 L 60 46 Z" fill="#898989" fill-opacity="0.501961" />
<path d="M 122 12 L 117 6 L 135 9 Z" fill="#828282" fill-opacity="0.501961" />
<path d="M 87 125 L 83 119 L 90 121 Z" fill="#010101" fill-opacity="0.501961" />
<path d="M 65 220 L 78 213 L 82 187 Z" fill="#c6c6c6" fill-opacity="0.501961" />
<path d="M 143 201 L 105 207 L 114 194 Z" fill="#bfbfbf" fill-opacity="0.501961" />
<path d="M 105 155 L 97 168 L 88 170 Z" fill="#505050" fill-opacity="0.501961" />
<path d="M 182 233 L 182 199 L 188 221 Z" fill="#808080" fill-opacity="0.501961" />
<path d="M 109 11 L 111 20 L 120 17 Z" fill="#030303" fill-opacity="0.501961" />
<path d="M 74 69 L 127 21 L 91 32 Z" fill="#000000" fill-opacity="0.501961" />
<path d="M 151 248 L 179 219 L 169 215 Z" fill="#000000" fill-opacity="0.501961" />
<path d="M 115 163 L 103 165 L 113 122 Z" fill="#cbcbcb" fill-opacity="0.501961" />
<path d="M 90 69 L 98 65 L 99 61 Z" fill="#737373" fill-opacity="0.501961" />
<path d="M 64 103 L 62 79 L 74 82 Z" fill="#090909" fill-opacity="0.501961" />
<path d="M 118 220 L 99 201 L 108 217 Z" fill="#010101" fill-opacity="0.501961" />
<path d="M 271 85 L 192 24 L 190 97 Z" fill="#ffffff" fill-opacity="0.501961" />
<path d="M 159 244 L 180 242 L 159 238 Z" fill="#545454" fill-opacity="0.501961" />
<path d="M 113 136 L 95 156 L 55 130 Z" fill="#f1f1f1" fill-opacity="0.501961" />
<path d="M 95 217 L 87 217 L 84 195 Z" fill="#d0d0d0" fill-opacity="0.501961" />
<path d="M 159 188 L 154 184 L 153 200 Z" fill="#7e7e7e" fill-opacity="0.501961" />
<path d="M 58 94 L 57 63 L 63 76 Z" fill="#737373" fill-opacity="0.501961" />
<path d="M 63 225 L 60 222 L 64 216 Z" fill="#1e1e1e" fill-opacity="0.501961" />
<path d="M 98 157 L 74 160 L 87 174 Z" fill="#cfcfcf" fill-opacity="0.501961" />
<path d="M 57 99 L 62 106 L 56 102 Z" fill="#000000" fill-opacity="0.501961" />
<path d="M 202 228 L 214 230 L 191 206 Z" fill="#909090" fill-opacity="0.501961" />
<path d="M 180 250 L 220 267 L 173 271 Z" fill="#000000" fill-opacity="0.501961" />
<path d="M 127 164 L 138 158 L 129 129 Z" fill="#bdbdbd" fill-opacity="0.501961" />
<path d="M 194 110 L 190 103 L 186 107 Z" fill="#f6f6f6" fill-opacity="0.501961" />
<path d="M 151 243 L 127 249 L 128 231 Z" fill="#969696" fill-opacity="0.501961" />
<path d="M 209 261 L 201 256 L 198 243 Z" fill="#000000" fill-opacity="0.501961" />
<path d="M 158 162 L 171 176 L 164 181 Z" fill="#9e9e9e" fill-opacity="0.501961" />
<path d="M 172 221 L 164 220 L 166 251 Z" fill="#000000" fill-opacity="0.501961" />
<path d="M 114 202 L 97 185 L 109 182 Z" fill="#d7d7d7" fill-opacity="0.501961" />
<path d="M 94 173 L 103 178 L 95 185 Z" fill="#000000" fill-opacity="0.501961" />
<path d="M 184 90 L 188 79 L 185 77 Z" fill="#e3e3e3" fill-opacity="0.501961" />
<path d="M 74 207 L 23 256 L 45 208 Z" fill="#afafaf" fill-opacity="0.501961" />
<path d="M 152 133 L 129 127 L 128 134 Z" fill="#707070" fill-opacity="0.501961" />
<path d="M 141 24 L 138 30 L 160 41 Z" fill="#2d2d2d" fill-opacity="0.501961" />
<path d="M 176 97 L 168 90 L 168 83 Z" fill="#848484" fill-opacity="0.501961" />
<path d="M 184 98 L 184 107 L 179 108 Z" fill="#000000" fill-opacity="0.501961" />
<path d="M 185 67 L 186 57 L 182 67 Z" fill="#f9f9f9" fill-opacity="0.501961" />
<path d="M 156 120 L 161 123 L 159 120 Z" fill="#ffffff" fill-opacity="0.501961" />
</g>
</svg>
